<?xml version="1.0" encoding="utf-8"?>
<!-- Generator: Adobe Illustrator 24.1.0, SVG Export Plug-In . SVG Version: 6.00 Build 0)  -->
<svg version="1.1" xmlns="http://www.w3.org/2000/svg" xmlns:xlink="http://www.w3.org/1999/xlink" x="0px" y="0px"
	 viewBox="0 0 1292 983" style="enable-background:new 0 0 1292 983;" xml:space="preserve">
<style type="text/css">
	.st0{display:none;}
	.st1{display:inline;fill:url(#SVGID_1_);}
	.st2{opacity:0.06;}
	.st3{fill:#FFFFFF;}
	.st4{opacity:0.43;fill:#FFFFFF;}
</style>
<g id="Capa_2" class="st0">
	<linearGradient id="SVGID_1_" gradientUnits="userSpaceOnUse" x1="646" y1="983" x2="646" y2="-9.094947e-13">
		<stop  offset="0" style="stop-color:#193D7E"/>
		<stop  offset="0.2328" style="stop-color:#1E3D87"/>
		<stop  offset="0.6185" style="stop-color:#2A3EA1"/>
		<stop  offset="1" style="stop-color:#393FC0"/>
	</linearGradient>
	<rect class="st1" width="1292" height="983"/>
</g>
<g id="Capa_1" class="st2">
	<g>
		<path class="st3" d="M150.5,25c35.12,0,68.15,13.68,92.98,38.52S282,121.38,282,156.5s-13.68,68.15-38.52,92.98
			S185.62,288,150.5,288s-68.15-13.68-92.98-38.52S19,191.62,19,156.5s13.68-68.15,38.52-92.98S115.38,25,150.5,25 M150.5,22
			C76.22,22,16,82.22,16,156.5S76.22,291,150.5,291S285,230.78,285,156.5S224.78,22,150.5,22L150.5,22z"/>
	</g>
	<g>
		<circle class="st4" cx="667" cy="481" r="155"/>
	</g>
	<g>
		<circle class="st4" cx="820.5" cy="202.5" r="45.5"/>
	</g>
	<g>
		<path class="st3" d="M484,185c41.91,0,76,34.09,76,76s-34.09,76-76,76s-76-34.09-76-76S442.09,185,484,185 M484,182
			c-43.63,0-79,35.37-79,79s35.37,79,79,79s79-35.37,79-79S527.63,182,484,182L484,182z"/>
	</g>
	<g>
		<circle class="st4" cx="1116.5" cy="354.5" r="137.5"/>
	</g>
	<g>
		<path class="st3" d="M1048.5,91c9.1,0,16.5,7.4,16.5,16.5s-7.4,16.5-16.5,16.5s-16.5-7.4-16.5-16.5S1039.4,91,1048.5,91
			 M1048.5,88c-10.77,0-19.5,8.73-19.5,19.5s8.73,19.5,19.5,19.5s19.5-8.73,19.5-19.5S1059.27,88,1048.5,88L1048.5,88z"/>
	</g>
	<g>
		<path class="st3" d="M705.5,70c30.05,0,58.3,11.7,79.55,32.95C806.3,124.2,818,152.45,818,182.5s-11.7,58.3-32.95,79.55
			C763.8,283.3,735.55,295,705.5,295s-58.3-11.7-79.55-32.95C604.7,240.8,593,212.55,593,182.5s11.7-58.3,32.95-79.55
			C647.2,81.7,675.45,70,705.5,70 M705.5,67C641.71,67,590,118.71,590,182.5S641.71,298,705.5,298S821,246.29,821,182.5
			S769.29,67,705.5,67L705.5,67z"/>
	</g>
	<g>
		<circle class="st4" cx="244.5" cy="742.5" r="207.5"/>
	</g>
	<g>
		<path class="st3" d="M991,495c32.59,0,63.22,12.69,86.27,35.73c23.04,23.04,35.73,53.68,35.73,86.27s-12.69,63.22-35.73,86.27
			C1054.22,726.31,1023.59,739,991,739s-63.22-12.69-86.27-35.73C881.69,680.22,869,649.59,869,617s12.69-63.22,35.73-86.27
			C927.78,507.69,958.41,495,991,495 M991,492c-69.04,0-125,55.96-125,125s55.96,125,125,125s125-55.96,125-125S1060.04,492,991,492
			L991,492z"/>
	</g>
	<g>
		<circle class="st4" cx="467" cy="96" r="31"/>
	</g>
	<g>
		<path class="st3" d="M244.5,422c6.34,0,11.5,5.16,11.5,11.5s-5.16,11.5-11.5,11.5s-11.5-5.16-11.5-11.5S238.16,422,244.5,422
			 M244.5,419c-8.01,0-14.5,6.49-14.5,14.5s6.49,14.5,14.5,14.5s14.5-6.49,14.5-14.5S252.51,419,244.5,419L244.5,419z"/>
	</g>
	<g>
		<path class="st3" d="M859,633c10.48,0,19,8.52,19,19s-8.52,19-19,19s-19-8.52-19-19S848.52,633,859,633 M859,630
			c-12.15,0-22,9.85-22,22s9.85,22,22,22s22-9.85,22-22S871.15,630,859,630L859,630z"/>
	</g>
	<circle class="st3" cx="116" cy="405" r="43"/>
	<circle class="st3" cx="701.5" cy="886.5" r="34.5"/>
</g>
</svg>
